<svg width="10" height="10" viewBox="0 0 10 10" fill="none" xmlns="http://www.w3.org/2000/svg">
<path d="M5.00065 9.16683C7.29232 9.16683 9.16732 7.29183 9.16732 5.00016C9.16732 2.7085 7.29232 0.833496 5.00065 0.833496C2.70898 0.833496 0.833984 2.7085 0.833984 5.00016C0.833984 7.29183 2.70898 9.16683 5.00065 9.16683Z" fill="#171717"/>
<path d="M5.00065 9.16683C7.29232 9.16683 9.16732 7.29183 9.16732 5.00016C9.16732 2.7085 7.29232 0.833496 5.00065 0.833496C2.70898 0.833496 0.833984 2.7085 0.833984 5.00016C0.833984 7.29183 2.70898 9.16683 5.00065 9.16683Z" fill="black" fill-opacity="0.2"/>
<path d="M3.22852 4.99997L4.40768 6.17913L6.77018 3.8208" stroke="white" stroke-width="0.625" stroke-linecap="round" stroke-linejoin="round"/>
</svg>
