<svg width="88" height="24" viewBox="0 0 88 24" fill="none" xmlns="http://www.w3.org/2000/svg">
<path d="M10.8196 24C8.68897 24 6.80248 23.6778 5.16012 23.0333C3.53995 22.3889 2.27489 21.3889 1.36493 20.0333C0.454978 18.6778 0 16.9556 0 14.8667V1.23333C0 0.988889 0.0887762 0.777778 0.266329 0.6C0.443881 0.422222 0.654725 0.333333 0.898859 0.333333H7.42391C7.66804 0.333333 7.87889 0.422222 8.05644 0.6C8.23399 0.777778 8.32277 0.988889 8.32277 1.23333V14.7333C8.32277 15.5556 8.52252 16.1889 8.92201 16.6333C9.3437 17.0778 9.96513 17.3 10.7863 17.3C11.6075 17.3 12.2178 17.0778 12.6173 16.6333C13.039 16.1889 13.2498 15.5556 13.2498 14.7333V1.23333C13.2498 0.988889 13.3386 0.777778 13.5162 0.6C13.6937 0.422222 13.9046 0.333333 14.1487 0.333333H20.6738C20.9179 0.333333 21.1287 0.422222 21.3063 0.6C21.4838 0.777778 21.5726 0.988889 21.5726 1.23333V14.8667C21.5726 16.9556 21.1176 18.6778 20.2077 20.0333C19.2977 21.3889 18.0327 22.3889 16.4125 23.0333C14.7923 23.6778 12.928 24 10.8196 24Z" fill="white"/>
<path d="M25.604 23.6667C25.3598 23.6667 25.149 23.5778 24.9714 23.4C24.7939 23.2222 24.7051 23.0111 24.7051 22.7667V0.9C24.7051 0.655556 24.7939 0.444445 24.9714 0.266667C25.149 0.088889 25.3598 0 25.604 0H31.5631C31.8072 0 32.018 0.088889 32.1956 0.266667C32.3731 0.444445 32.4619 0.655556 32.4619 0.9V22.7667C32.4619 23.0111 32.3731 23.2222 32.1956 23.4C32.018 23.5778 31.8072 23.6667 31.5631 23.6667H25.604Z" fill="white"/>
<path d="M46.1859 23.6667C44.5879 23.6667 43.1564 23.4556 41.8914 23.0333C40.6485 22.5889 39.6609 21.8444 38.9284 20.8C38.2182 19.7556 37.8631 18.3222 37.8631 16.5V12.1667H35.2331C34.989 12.1667 34.7782 12.0778 34.6006 11.9C34.4231 11.7222 34.3343 11.5111 34.3343 11.2667V7.23333C34.3343 6.98889 34.4231 6.77778 34.6006 6.6C34.7782 6.42222 34.989 6.33333 35.2331 6.33333H37.8631V0.9C37.8631 0.655556 37.9519 0.444445 38.1295 0.266667C38.307 0.088889 38.5179 0 38.762 0H44.5879C44.8321 0 45.0429 0.088889 45.2205 0.266667C45.398 0.444445 45.4868 0.655556 45.4868 0.9V6.33333H49.6815C49.9256 6.33333 50.1364 6.42222 50.314 6.6C50.4915 6.77778 50.5803 6.98889 50.5803 7.23333V11.2667C50.5803 11.5111 50.4915 11.7222 50.314 11.9C50.1364 12.0778 49.9256 12.1667 49.6815 12.1667H45.4868V15.8333C45.4868 16.3444 45.5978 16.7556 45.8197 17.0667C46.0638 17.3556 46.43 17.5 46.9183 17.5H49.9478C50.1919 17.5 50.4028 17.5889 50.5803 17.7667C50.7579 17.9444 50.8467 18.1556 50.8467 18.4V22.7667C50.8467 23.0111 50.7579 23.2222 50.5803 23.4C50.4028 23.5778 50.1919 23.6667 49.9478 23.6667H46.1859Z" fill="white"/>
<path d="M54.0834 23.6667C53.8393 23.6667 53.6285 23.5778 53.4509 23.4C53.2733 23.2222 53.1846 23.0111 53.1846 22.7667V7.23333C53.1846 6.98889 53.2733 6.77778 53.4509 6.6C53.6285 6.42222 53.8393 6.33333 54.0834 6.33333H59.9094C60.1535 6.33333 60.3643 6.42222 60.5419 6.6C60.7194 6.77778 60.8082 6.98889 60.8082 7.23333V8.4C61.5184 7.77778 62.3063 7.27778 63.1719 6.9C64.0597 6.52222 65.0029 6.33333 66.0016 6.33333H67.5996C67.8437 6.33333 68.0546 6.42222 68.2321 6.6C68.4097 6.77778 68.4985 6.98889 68.4985 7.23333V12.4333C68.4985 12.6778 68.4097 12.8889 68.2321 13.0667C68.0546 13.2444 67.8437 13.3333 67.5996 13.3333H63.3051C62.6392 13.3333 62.1399 13.5 61.807 13.8333C61.474 14.1667 61.3076 14.6667 61.3076 15.3333V22.7667C61.3076 23.0111 61.2188 23.2222 61.0413 23.4C60.8637 23.5778 60.6529 23.6667 60.4087 23.6667H54.0834Z" fill="white"/>
<path d="M75.649 24C74.384 24 73.2632 23.7667 72.2866 23.3C71.3101 22.8333 70.5444 22.2 69.9895 21.4C69.4569 20.6 69.1906 19.7 69.1906 18.7C69.1906 17.0778 69.8453 15.8111 71.1547 14.9C72.4864 13.9667 74.2619 13.3111 76.4813 12.9333L80.0102 12.3667V12.3333C80.0102 11.7556 79.9547 11.3333 79.8437 11.0667C79.7549 10.8 79.4775 10.6667 79.0114 10.6667C78.7007 10.6667 78.4455 10.7333 78.2457 10.8667C78.0682 10.9778 77.8684 11.1444 77.6465 11.3667C77.4024 11.6111 77.0916 11.7333 76.7143 11.7333H71.0549C70.8329 11.7333 70.6443 11.6667 70.4889 11.5333C70.3557 11.4 70.3003 11.2222 70.3225 11C70.3447 10.5778 70.5222 10.0889 70.8551 9.53333C71.188 8.95556 71.6985 8.4 72.3865 7.86667C73.0967 7.33333 73.9956 6.88889 75.0831 6.53333C76.1928 6.17778 77.5244 6 79.078 6C80.5872 6 81.8966 6.16667 83.0063 6.5C84.1382 6.81111 85.0704 7.27778 85.8028 7.9C86.5352 8.5 87.079 9.25556 87.4341 10.1667C87.8114 11.0556 88 12.0667 88 13.2V22.7667C88 23.0111 87.9112 23.2222 87.7337 23.4C87.5561 23.5778 87.3453 23.6667 87.1012 23.6667H81.2752C81.0311 23.6667 80.8202 23.5778 80.6427 23.4C80.4651 23.2222 80.3764 23.0111 80.3764 22.7667V21.8333C80.0656 22.2778 79.6661 22.6667 79.1779 23C78.7118 23.3111 78.1791 23.5556 77.5799 23.7333C76.9807 23.9111 76.337 24 75.649 24ZM77.9461 19.0667C78.39 19.0667 78.7673 18.9778 79.078 18.8C79.4109 18.6222 79.6661 18.3444 79.8437 17.9667C80.0212 17.5667 80.11 17.0778 80.11 16.5V16.4667L78.1459 16.9C77.5688 17.0333 77.1804 17.2111 76.9807 17.4333C76.7809 17.6556 76.681 17.8889 76.681 18.1333C76.681 18.2889 76.7254 18.4444 76.8142 18.6C76.9252 18.7333 77.0694 18.8444 77.247 18.9333C77.4467 19.0222 77.6798 19.0667 77.9461 19.0667Z" fill="white"/>
</svg>
